<?xml version="1.0" encoding="UTF-8"?>
<svg version="1.1" xmlns="http://www.w3.org/2000/svg" width="126" height="150">
<path d="M0 0 C41.58 0 83.16 0 126 0 C126 49.5 126 99 126 150 C84.42 150 42.84 150 0 150 C0 100.5 0 51 0 0 Z " fill="#F9F9F9" transform="translate(0,0)"/>
<path d="M0 0 C0.7536232 -0.00846954 1.5072464 -0.01693909 2.28370667 -0.02566528 C4.75954337 -0.04894793 7.23475576 -0.05005984 9.71069336 -0.04882812 C11.43892157 -0.05593313 13.16714744 -0.06363263 14.89537048 -0.07189941 C18.51071745 -0.08532274 22.12584608 -0.08692186 25.74121094 -0.08105469 C30.3707038 -0.07514933 34.99915129 -0.10579396 39.62844181 -0.14617157 C43.19471364 -0.17203236 46.76073283 -0.1749277 50.32708549 -0.17127991 C52.03391594 -0.17297154 53.74075801 -0.18261833 55.44749641 -0.20042419 C57.83419893 -0.22259195 60.21877278 -0.21292696 62.60546875 -0.1953125 C63.65840118 -0.21520737 63.65840118 -0.21520737 64.73260498 -0.23550415 C68.58103339 -0.16959758 70.09093973 0.29389146 73.05491638 2.83337402 C74.13556114 4.11371521 74.13556114 4.11371521 75.23803711 5.41992188 C76.50647461 6.40992188 76.50647461 6.40992188 77.80053711 7.41992188 C85.70825982 17.15250367 84.776696 30.36622947 84.62866211 42.18945312 C84.62118369 43.96448625 84.61549835 45.73952774 84.61151123 47.51457214 C84.5963807 52.14246197 84.55721063 56.769834 84.51269531 61.39752197 C84.46419466 66.97353671 84.44614854 72.54972648 84.42288208 78.12589264 C84.38434931 86.55759368 84.30760927 94.98816301 84.23803711 103.41992188 C60.47803711 103.41992188 36.71803711 103.41992188 12.23803711 103.41992188 C12.23803711 86.91992188 12.23803711 70.41992188 12.23803711 53.41992188 C5.96803711 53.41992188 -0.30196289 53.41992188 -6.76196289 53.41992188 C-16.05228547 48.77476058 -16.05228547 48.77476058 -18.76196289 44.41992188 C-19.13321289 43.85144531 -19.50446289 43.28296875 -19.88696289 42.69726562 C-24.28684431 34.76831265 -24.2224948 24.19175653 -22.03149414 15.53320312 C-21.10870907 13.31475248 -20.09618334 11.41473355 -18.76196289 9.41992188 C-18.3765332 8.83855469 -17.99110352 8.2571875 -17.59399414 7.65820312 C-12.94649254 1.44649387 -7.44097137 -0.03115527 0 0 Z " fill="#FDFDFD" transform="translate(30.761962890625,35.580078125)"/>
<path d="M0 0 C41.25 0 82.5 0 125 0 C125 9.9 125 19.8 125 30 C84.08 30 43.16 30 1 30 C1 69.27 1 108.54 1 149 C41.92 149 82.84 149 125 149 C125 149.33 125 149.66 125 150 C83.75 150 42.5 150 0 150 C0 100.5 0 51 0 0 Z " fill="#0A0A0A" transform="translate(0,0)"/>
<path d="M0 0 C0.75844208 -0.00365067 1.51688416 -0.00730133 2.29830933 -0.01106262 C4.7886235 -0.01912566 7.27827853 -0.00559895 9.76855469 0.0090332 C11.50396728 0.00955211 13.23938047 0.00903324 14.97479248 0.00752258 C18.60275096 0.0076121 22.23048626 0.01800387 25.85839844 0.03613281 C30.51476965 0.05888714 35.17081695 0.05934973 39.82722855 0.05261517 C43.40621841 0.04927984 46.98513401 0.05589587 50.5641098 0.0657444 C52.28176231 0.06959916 53.99942306 0.07074347 55.71707916 0.06915855 C58.11102678 0.06878902 60.50455301 0.08137405 62.8984375 0.09765625 C63.61117828 0.09517883 64.32391907 0.09270142 65.05825806 0.09014893 C69.96167858 0.14356334 69.96167858 0.14356334 72.19042969 2.37231445 C49.75042969 2.70231445 27.31042969 3.03231445 4.19042969 3.37231445 C6.17042969 6.01231445 8.15042969 8.65231445 10.19042969 11.37231445 C12.86346313 17.09274023 13.62130539 21.64281109 13.53100586 27.8996582 C13.53166298 29.11573006 13.53166298 29.11573006 13.53233337 30.35636902 C13.53026105 33.00777165 13.50700455 35.65852374 13.48339844 38.30981445 C13.47779693 40.15925756 13.47352945 42.00870514 13.47053528 43.8581543 C13.45913017 48.7046558 13.42970064 53.55088374 13.39642334 58.39727783 C13.36020581 64.22351937 13.34654065 70.04985283 13.32906342 75.87617493 C13.30006045 84.70841117 13.24254315 93.54004823 13.19042969 102.37231445 C36.29042969 102.37231445 59.39042969 102.37231445 83.19042969 102.37231445 C83.09926399 89.38387242 83.09926399 89.38387242 82.98144531 76.39575195 C82.92740173 71.08783707 82.87628319 65.78002146 82.84399414 60.47192383 C82.81772271 56.18584746 82.77715808 51.90011024 82.72724342 47.61424637 C82.71073404 45.9902841 82.69912176 44.3662634 82.69281578 42.74222946 C82.63980784 30.32974382 81.27691159 19.21051549 77.19042969 7.37231445 C82.29354024 11.69224896 83.74007319 19.03331987 84.40730286 25.46179581 C84.73812945 31.01940666 84.65072123 36.57769373 84.58105469 42.1418457 C84.57357627 43.91687883 84.56789093 45.69192032 84.56390381 47.46696472 C84.54877327 52.09485454 84.50960321 56.72222658 84.46508789 61.34991455 C84.41658723 66.92592929 84.39854112 72.50211905 84.37527466 78.07828522 C84.33674189 86.50998626 84.26000184 94.94055559 84.19042969 103.37231445 C60.43042969 103.37231445 36.67042969 103.37231445 12.19042969 103.37231445 C12.19042969 86.87231445 12.19042969 70.37231445 12.19042969 53.37231445 C5.92042969 53.37231445 -0.34957031 53.37231445 -6.80957031 53.37231445 C-16.09989289 48.72715316 -16.09989289 48.72715316 -18.80957031 44.37231445 C-19.18082031 43.80383789 -19.55207031 43.23536133 -19.93457031 42.6496582 C-24.33445173 34.72070523 -24.27010222 24.14414911 -22.07910156 15.4855957 C-21.15631649 13.26714506 -20.14379076 11.36712613 -18.80957031 9.37231445 C-18.42414062 8.79094727 -18.03871094 8.20958008 -17.64160156 7.6105957 C-12.97292356 1.37058272 -7.47114966 -0.0810445 0 0 Z " fill="#D8D8D8" transform="translate(30.8095703125,35.627685546875)"/>
<path d="M0 0 C0 3.3 0 6.6 0 10 C-3.3 10.99 -6.6 11.98 -10 13 C-10 18.94 -10 24.88 -10 31 C-6.7 31.99 -3.4 32.98 0 34 C0 37.3 0 40.6 0 44 C-9.55212005 41.42533037 -18.51575778 37.61955989 -27.625 33.8125 C-29.21726241 33.15124584 -30.80970896 32.4904349 -32.40234375 31.83007812 C-36.27037119 30.22515434 -40.13585701 28.61425258 -44 27 C-44 23.7 -44 20.4 -44 17 C-33.11994474 12.62652762 -22.22766307 8.28518673 -11.3125 4 C-9.79837524 3.40360718 -9.79837524 3.40360718 -8.25366211 2.79516602 C-7.32046143 2.42963623 -6.38726074 2.06410645 -5.42578125 1.6875 C-4.59473877 1.36136719 -3.76369629 1.03523438 -2.9074707 0.69921875 C-1 0 -1 0 0 0 Z " fill="#070707" transform="translate(99,79)"/>
<path d="M0 0 C2.97 0 5.94 0 9 0 C9 4.62 9 9.24 9 14 C11.31 14 13.62 14 16 14 C14.46356148 17.68069887 12.21849055 19.98775204 9.375 22.75 C8.55773437 23.54921875 7.74046875 24.3484375 6.8984375 25.171875 C6.27195312 25.77515625 5.64546875 26.3784375 5 27 C0.11950075 23.0580583 -4.0580583 18.88049925 -8 14 C-5.36 14 -2.72 14 0 14 C0 9.38 0 4.76 0 0 Z " fill="#0C0C0C" transform="translate(23,113)"/>
<path d="M0 0 C1.98 0 3.96 0 6 0 C8.40209043 4.90426796 9.62025399 8.41771413 9 14 C7.875 16.9375 7.875 16.9375 6 19 C2.8125 19.3125 2.8125 19.3125 0 19 C-2.66467584 14.44784545 -3.56458217 11.2694336 -3 6 C-1.5 2.5625 -1.5 2.5625 0 0 Z " fill="#050505" transform="translate(23,53)"/>
<path d="M0 0 C0.758004 -0.00335861 1.516008 -0.00671722 2.29698181 -0.01017761 C4.80339189 -0.01967963 7.30973515 -0.0216301 9.81616211 -0.02270508 C11.55586271 -0.02591729 13.29556304 -0.02928134 15.03526306 -0.03279114 C18.68106717 -0.0387799 22.32684757 -0.04063121 25.97265625 -0.04003906 C30.65262255 -0.03993725 35.33243777 -0.05361012 40.0123682 -0.07081127 C43.60420943 -0.08190674 47.19601379 -0.08395906 50.78787041 -0.08342934 C52.51390544 -0.08461237 54.23994133 -0.08905214 55.96595955 -0.0967617 C58.37455102 -0.10651577 60.78280987 -0.10370232 63.19140625 -0.09765625 C63.90886017 -0.10327576 64.62631409 -0.10889526 65.36550903 -0.11468506 C70.30268745 -0.08305473 70.30268745 -0.08305473 72.53100586 2.14526367 C50.09100586 2.47526367 27.65100586 2.80526367 4.53100586 3.14526367 C5.52100586 4.13526367 6.51100586 5.12526367 7.53100586 6.14526367 C7.20100586 6.80526367 6.87100586 7.46526367 6.53100586 8.14526367 C5.78850586 7.32026367 5.04600586 6.49526367 4.28100586 5.64526367 C-0.25870748 1.75251431 -5.83587884 2.73508537 -11.46899414 3.14526367 C-9.35253058 -1.08766344 -4.14774515 -0.00262737 0 0 Z " fill="#989898" transform="translate(30.468994140625,35.854736328125)"/>
<path d="M0 0 C1.4540625 0.0309375 1.4540625 0.0309375 2.9375 0.0625 C3.2675 1.3825 3.5975 2.7025 3.9375 4.0625 C1.9575 3.4025 -0.0225 2.7425 -2.0625 2.0625 C-0.81703595 5.79889216 0.57154953 6.25006513 3.9375 8.0625 C4.9275 5.4225 5.9175 2.7825 6.9375 0.0625 C8.2575 0.0625 9.5775 0.0625 10.9375 0.0625 C11.44221197 1.83199612 11.94110685 3.60315223 12.4375 5.375 C12.7159375 6.36113281 12.994375 7.34726563 13.28125 8.36328125 C13.9375 11.0625 13.9375 11.0625 13.9375 14.0625 C12.9475 14.0625 11.9575 14.0625 10.9375 14.0625 C10.9375 13.0725 10.9375 12.0825 10.9375 11.0625 C9.6175 11.0625 8.2975 11.0625 6.9375 11.0625 C6.6075 12.0525 6.2775 13.0425 5.9375 14.0625 C4.47957116 14.11649736 3.02107288 14.15529177 1.5625 14.1875 C0.75039062 14.21070313 -0.06171875 14.23390625 -0.8984375 14.2578125 C-3.0625 14.0625 -3.0625 14.0625 -5.0625 12.0625 C-5.0625 11.0725 -5.0625 10.0825 -5.0625 9.0625 C-4.4025 9.0625 -3.7425 9.0625 -3.0625 9.0625 C-2.7325 9.7225 -2.4025 10.3825 -2.0625 11.0625 C-0.03786745 11.71463292 -0.03786745 11.71463292 1.9375 12.0625 C1.24864204 8.85188622 1.24864204 8.85188622 -1.625 7.6875 C-2.429375 7.15125 -3.23375 6.615 -4.0625 6.0625 C-4.4375 3.4375 -4.4375 3.4375 -4.0625 1.0625 C-3.0625 0.0625 -3.0625 0.0625 0 0 Z " fill="#C2C2C2" transform="translate(82.0625,4.9375)"/>
<path d="M0 0 C3.125 0.375 3.125 0.375 6 1 C6 2.32 6 3.64 6 5 C5.34 5 4.68 5 4 5 C4 4.01 4 3.02 4 2 C3.01 2.33 2.02 2.66 1 3 C1 5.64 1 8.28 1 11 C1.66 11 2.32 11 3 11 C3.33 10.34 3.66 9.68 4 9 C4.66 9 5.32 9 6 9 C6.99 6.03 7.98 3.06 9 0 C10.32 0 11.64 0 13 0 C13.50471197 1.76949612 14.00360685 3.54065223 14.5 5.3125 C14.7784375 6.29863281 15.056875 7.28476563 15.34375 8.30078125 C16 11 16 11 16 14 C15.01 14 14.02 14 13 14 C13 13.01 13 12.02 13 11 C11.68 11 10.36 11 9 11 C8.67 11.99 8.34 12.98 8 14 C4.70772079 14 2.14445451 13.84985257 -1 13 C-2.17673198 10.64653604 -2.16623866 9.1193967 -2.1875 6.5 C-2.20167969 5.7059375 -2.21585938 4.911875 -2.23046875 4.09375 C-2 2 -2 2 0 0 Z " fill="#C2C2C2" transform="translate(18,5)"/>
<path d="M0 0 C5.61 0 11.22 0 17 0 C17 0.66 17 1.32 17 2 C16.01 2 15.02 2 14 2 C14 5.96 14 9.92 14 14 C13.34 14 12.68 14 12 14 C12 10.04 12 6.08 12 2 C10.68 2 9.36 2 8 2 C8.33 5.96 8.66 9.92 9 14 C8.01 14 7.02 14 6 14 C5.67 12.35 5.34 10.7 5 9 C4.01 8.67 3.02 8.34 2 8 C2 9.98 2 11.96 2 14 C1.34 14 0.68 14 0 14 C0 9.38 0 4.76 0 0 Z " fill="#AEAEAE" transform="translate(35,5)"/>
<path d="M0 0 C0 3.3 0 6.6 0 10 C-5.05255964 9.36843005 -9.29593201 7.86540627 -14 6 C-14 5.34 -14 4.68 -14 4 C-12.23141309 3.32739649 -10.46003984 2.66211605 -8.6875 2 C-7.70136719 1.62875 -6.71523437 1.2575 -5.69921875 0.875 C-3 0 -3 0 0 0 Z " fill="#EEEEEE" transform="translate(81,96)"/>
<path d="M0 0 C0.99 0 1.98 0 3 0 C3.99 4.62 4.98 9.24 6 14 C5.34 14 4.68 14 4 14 C3.67 13.34 3.34 12.68 3 12 C0.97536745 11.34786708 0.97536745 11.34786708 -1 11 C-1 11.99 -1 12.98 -1 14 C-1.99 14 -2.98 14 -4 14 C-3.71572583 12.41532272 -3.42225182 10.8322943 -3.125 9.25 C-2.96257812 8.36828125 -2.80015625 7.4865625 -2.6328125 6.578125 C-2.03203736 4.13052256 -1.22002883 2.19400143 0 0 Z " fill="#E5E5E5" transform="translate(67,5)"/>
<path d="M0 0 C0.99 0 1.98 0 3 0 C3.99 4.62 4.98 9.24 6 14 C5.34 14 4.68 14 4 14 C3.67 13.34 3.34 12.68 3 12 C0.97536745 11.34786708 0.97536745 11.34786708 -1 11 C-1 11.99 -1 12.98 -1 14 C-1.99 14 -2.98 14 -4 14 C-3.71572583 12.41532272 -3.42225182 10.8322943 -3.125 9.25 C-2.96257813 8.36828125 -2.80015625 7.4865625 -2.6328125 6.578125 C-2.03203736 4.13052256 -1.22002883 2.19400143 0 0 Z " fill="#E5E5E5" transform="translate(54,5)"/>
<path d="M0 0 C1.4540625 0.0309375 1.4540625 0.0309375 2.9375 0.0625 C3.2675 1.3825 3.5975 2.7025 3.9375 4.0625 C1.9575 3.4025 -0.0225 2.7425 -2.0625 2.0625 C-0.80407232 5.83778304 0.56243429 6.16917045 3.9375 8.0625 C5.9375 10.0625 5.9375 10.0625 5.9375 14.0625 C4.47957116 14.11649736 3.02107288 14.15529177 1.5625 14.1875 C0.75039062 14.21070313 -0.06171875 14.23390625 -0.8984375 14.2578125 C-3.0625 14.0625 -3.0625 14.0625 -5.0625 12.0625 C-5.0625 11.0725 -5.0625 10.0825 -5.0625 9.0625 C-4.4025 9.0625 -3.7425 9.0625 -3.0625 9.0625 C-2.7325 9.7225 -2.4025 10.3825 -2.0625 11.0625 C-0.03786745 11.71463292 -0.03786745 11.71463292 1.9375 12.0625 C1.24864204 8.85188622 1.24864204 8.85188622 -1.625 7.6875 C-2.429375 7.15125 -3.23375 6.615 -4.0625 6.0625 C-4.4375 3.4375 -4.4375 3.4375 -4.0625 1.0625 C-3.0625 0.0625 -3.0625 0.0625 0 0 Z " fill="#DDDDDD" transform="translate(82.0625,4.9375)"/>
<path d="M0 0 C3.125 0.375 3.125 0.375 6 1 C6 2.32 6 3.64 6 5 C5.34 5 4.68 5 4 5 C4 4.01 4 3.02 4 2 C3.01 2.33 2.02 2.66 1 3 C1 5.64 1 8.28 1 11 C1.66 11 2.32 11 3 11 C3.33 10.34 3.66 9.68 4 9 C5.32 9.33 6.64 9.66 8 10 C8 11.32 8 12.64 8 14 C4.70772079 14 2.14445451 13.84985257 -1 13 C-2.17673198 10.64653604 -2.16623866 9.1193967 -2.1875 6.5 C-2.20167969 5.7059375 -2.21585938 4.911875 -2.23046875 4.09375 C-2 2 -2 2 0 0 Z " fill="#E2E2E2" transform="translate(18,5)"/>
<path d="M0 0 C0.66 0 1.32 0 2 0 C2 2.64 2 5.28 2 8 C2.66 8 3.32 8 4 8 C4 8.66 4 9.32 4 10 C3.34 10 2.68 10 2 10 C2 10.99 2 11.98 2 13 C1.34 13 0.68 13 0 13 C0 12.01 0 11.02 0 10 C-1.65 10 -3.3 10 -5 10 C-3.85569823 6.12697862 -2.76679902 2.99736561 0 0 Z " fill="#D0CFCF" transform="translate(105,6)"/>
<path d="M0 0 C2.64 0 5.28 0 8 0 C8 0.66 8 1.32 8 2 C7.01 2 6.02 2 5 2 C5 5.96 5 9.92 5 14 C4.34 14 3.68 14 3 14 C3 9.71 3 5.42 3 1 C2.01 0.67 1.02 0.34 0 0 Z " fill="#F2F2F2" transform="translate(44,5)"/>
<path d="M0 0 C1.4540625 0.0309375 1.4540625 0.0309375 2.9375 0.0625 C3.2675 1.3825 3.5975 2.7025 3.9375 4.0625 C1.9575 3.4025 -0.0225 2.7425 -2.0625 2.0625 C-1.31099977 5.34023504 -1.31099977 5.34023504 1.9375 7.0625 C0.0625 7.6875 0.0625 7.6875 -2.0625 8.0625 C-4.0625 6.0625 -4.0625 6.0625 -4.25 3.5 C-3.97031732 -0.13587487 -3.72751987 0.07607183 0 0 Z " fill="#D0D0D0" transform="translate(82.0625,4.9375)"/>
<path d="M0 0 C2.09749995 2.35968744 2.96905704 3.54616994 3.1875 6.75 C3.125625 7.4925 3.06375 8.235 3 9 C1.68 9 0.36 9 -1 9 C-0.67 6.03 -0.34 3.06 0 0 Z " fill="#939393" transform="translate(89,5)"/>
<path d="M0 0 C2.09749995 2.35968744 2.96905704 3.54616994 3.1875 6.75 C3.125625 7.4925 3.06375 8.235 3 9 C1.68 9 0.36 9 -1 9 C-0.67 6.03 -0.34 3.06 0 0 Z " fill="#939393" transform="translate(27,5)"/>
<path d="M0 0 C0.99 0 1.98 0 3 0 C3.33 2.97 3.66 5.94 4 9 C2.68 9.33 1.36 9.66 0 10 C0.66 9.67 1.32 9.34 2 9 C2 7.35 2 5.7 2 4 C1.34 3.67 0.68 3.34 0 3 C0 2.01 0 1.02 0 0 Z " fill="#E4E4E4" transform="translate(90,5)"/>
<path d="M0 0 C0.99 0 1.98 0 3 0 C3.33 2.97 3.66 5.94 4 9 C2.68 9.33 1.36 9.66 0 10 C0.66 9.67 1.32 9.34 2 9 C2 7.35 2 5.7 2 4 C1.34 3.67 0.68 3.34 0 3 C0 2.01 0 1.02 0 0 Z " fill="#E4E4E4" transform="translate(28,5)"/>
<path d="M0 0 C0.33 0 0.66 0 1 0 C1.12375 0.78375 1.2475 1.5675 1.375 2.375 C1.79117993 5.14057822 1.79117993 5.14057822 4 7 C3.34 7 2.68 7 2 7 C2 8.98 2 10.96 2 13 C1.34 13 0.68 13 0 13 C0 8.71 0 4.42 0 0 Z " fill="#F7F7F7" transform="translate(35,6)"/>
<path d="M0 0 C2 3 2 3 1.625 6.1875 C1.41875 7.115625 1.2125 8.04375 1 9 C0.01 9 -0.98 9 -2 9 C-1.41196203 5.97580475 -0.77321882 2.98241547 0 0 Z " fill="#848483" transform="translate(69,5)"/>
<path d="M0 0 C2 3 2 3 1.625 6.1875 C1.41875 7.115625 1.2125 8.04375 1 9 C0.01 9 -0.98 9 -2 9 C-1.41196203 5.97580475 -0.77321882 2.98241547 0 0 Z " fill="#848483" transform="translate(56,5)"/>
<path d="M0 0 C2.97 0.495 2.97 0.495 6 1 C6 2.32 6 3.64 6 5 C5.34 5 4.68 5 4 5 C4 4.01 4 3.02 4 2 C2.68 2.33 1.36 2.66 0 3 C0 2.01 0 1.02 0 0 Z " fill="#CFCFCF" transform="translate(18,5)"/>
<path d="M0 0 C0.33 0.66 0.66 1.32 1 2 C2.65 2 4.3 2 6 2 C4.68 2.33 3.36 2.66 2 3 C2 3.99 2 4.98 2 6 C1.01 6 0.02 6 -1 6 C-0.67 4.02 -0.34 2.04 0 0 Z " fill="#BCBCBB" transform="translate(64,13)"/>
<path d="M0 0 C0.33 0.66 0.66 1.32 1 2 C2.65 2 4.3 2 6 2 C4.68 2.33 3.36 2.66 2 3 C2 3.99 2 4.98 2 6 C1.01 6 0.02 6 -1 6 C-0.67 4.02 -0.34 2.04 0 0 Z " fill="#BCBCBB" transform="translate(51,13)"/>
</svg>
