<?xml version="1.0" encoding="UTF-8"?>
<svg version="1.1" xmlns="http://www.w3.org/2000/svg" width="126" height="150">
<path d="M0 0 C41.58 0 83.16 0 126 0 C126 49.5 126 99 126 150 C84.42 150 42.84 150 0 150 C0 100.5 0 51 0 0 Z " fill="#F7F7F7" transform="translate(0,0)"/>
<path d="M0 0 C1.16648575 -0.00525696 1.16648575 -0.00525696 2.35653687 -0.01062012 C4.92251556 -0.01941053 7.48821781 -0.01359898 10.05419922 -0.00683594 C11.83731133 -0.00818309 13.62042308 -0.01012404 15.40353394 -0.01263428 C19.13754784 -0.01558166 22.87146598 -0.01129927 26.60546875 -0.00195312 C31.39864253 0.00945774 36.19159274 0.0028692 40.98475838 -0.00909805 C44.66496476 -0.01631296 48.34511782 -0.01403072 52.02532578 -0.00884247 C53.79322206 -0.0075058 55.56112314 -0.00915427 57.32901382 -0.01380157 C59.79499465 -0.01886258 62.26060908 -0.01116353 64.7265625 0 C65.46114685 -0.00404846 66.1957312 -0.00809692 66.95257568 -0.01226807 C72.00535437 0.03025671 72.00535437 0.03025671 74.23388672 2.25878906 C51.13388672 2.25878906 28.03388672 2.25878906 4.23388672 2.25878906 C5.88388672 3.90878906 7.53388672 5.55878906 9.23388672 7.25878906 C10.56201172 9.39160156 10.56201172 9.39160156 11.48388672 11.38378906 C11.79841797 12.04636719 12.11294922 12.70894531 12.43701172 13.39160156 C15.76765769 21.19576223 15.5303094 32.03753685 12.48388672 39.94628906 C10.53234144 44.05699082 8.43340163 48.15903161 4.23388672 50.25878906 C27.00388672 50.25878906 49.77388672 50.25878906 73.23388672 50.25878906 C72.24388672 51.24878906 72.24388672 51.24878906 71.23388672 52.25878906 C67.93388672 52.25878906 64.63388672 52.25878906 61.23388672 52.25878906 C61.23388672 69.41878906 61.23388672 86.57878906 61.23388672 104.25878906 C34.17388672 104.25878906 7.11388672 104.25878906 -20.76611328 104.25878906 C-21.17611444 83.44677355 -21.17611444 83.44677355 -21.31689453 74.53222656 C-21.41283783 68.46422547 -21.5131801 62.39653345 -21.640625 56.32910156 C-21.74316052 51.43393136 -21.82521001 46.53879634 -21.89344025 41.64303207 C-21.92291634 39.78113874 -21.95960471 37.91934429 -22.00383759 36.05774307 C-22.29737334 23.44702819 -22.08480996 13.53209835 -13.32861328 3.63378906 C-9.23366727 0.03023658 -5.26832116 -0.02919582 0 0 Z " fill="#FBFBFB" transform="translate(30.76611328125,34.7412109375)"/>
<path d="M0 0 C41.25 0 82.5 0 125 0 C125 9.9 125 19.8 125 30 C84.08 30 43.16 30 1 30 C1 69.27 1 108.54 1 149 C41.92 149 82.84 149 125 149 C125 149.33 125 149.66 125 150 C83.75 150 42.5 150 0 150 C0 100.5 0 51 0 0 Z " fill="#0A0A0A" transform="translate(0,0)"/>
<path d="M0 0 C8.77972757 -0.04637541 17.55941285 -0.08189564 26.33923626 -0.10362434 C30.41622436 -0.11405392 34.49312855 -0.12819802 38.57006836 -0.15087891 C42.50579972 -0.17263677 46.44145045 -0.18457484 50.37723732 -0.18975449 C51.87751344 -0.19344496 53.37778524 -0.20065155 54.87802696 -0.21146011 C56.98217624 -0.22601431 59.08599389 -0.22797632 61.19018555 -0.22705078 C62.38709518 -0.231492 63.58400482 -0.23593323 64.81718445 -0.24050903 C68.79110047 0.0597794 71.7137968 0.87348343 74.73046875 3.515625 C75.21128906 4.08796875 75.69210938 4.6603125 76.1875 5.25 C76.67605469 5.81203125 77.16460937 6.3740625 77.66796875 6.953125 C82.5603391 14.47101961 81.81030001 24.39180065 81 33 C79.43660988 39.97187486 76.40293856 45.19477401 70.25653076 49.11080933 C67.21682812 50.30861052 64.66113119 50.23932756 61.39550781 50.22705078 C60.74143448 50.22734283 60.08736115 50.22763489 59.41346741 50.22793579 C57.25988317 50.22654676 55.10664851 50.21100608 52.953125 50.1953125 C51.45668731 50.19158084 49.96024717 50.18873459 48.46380615 50.18673706 C44.5313641 50.1791126 40.59907053 50.15947438 36.66668701 50.1373291 C32.65150969 50.11684506 28.6363083 50.10772988 24.62109375 50.09765625 C16.74732781 50.0762273 8.87368239 50.04210576 1 50 C1.41617584 49.52147079 1.83235168 49.04294159 2.26113892 48.5499115 C2.80483124 47.92105545 3.34852356 47.2921994 3.90869141 46.64428711 C4.71858017 45.7099308 4.71858017 45.7099308 5.54483032 44.75669861 C11.26782556 37.84782886 11.7478024 29.41632048 11.3984375 20.7890625 C10.87722402 15.83242453 9.43169903 12.27676249 7 8 C6.690625 7.030625 6.38125 6.06125 6.0625 5.0625 C5.12185361 2.73809632 5.12185361 2.73809632 2.375 1.6875 C1.59125 1.460625 0.8075 1.23375 0 1 C0 0.67 0 0.34 0 0 Z " fill="#FEFEFE" transform="translate(33,36)"/>
<path d="M0 0 C1.16648575 -0.00525696 1.16648575 -0.00525696 2.35653687 -0.01062012 C4.92251556 -0.01941053 7.48821781 -0.01359898 10.05419922 -0.00683594 C11.83731133 -0.00818309 13.62042308 -0.01012404 15.40353394 -0.01263428 C19.13754784 -0.01558166 22.87146598 -0.01129927 26.60546875 -0.00195312 C31.39864253 0.00945774 36.19159274 0.0028692 40.98475838 -0.00909805 C44.66496476 -0.01631296 48.34511782 -0.01403072 52.02532578 -0.00884247 C53.79322206 -0.0075058 55.56112314 -0.00915427 57.32901382 -0.01380157 C59.79499465 -0.01886258 62.26060908 -0.01116353 64.7265625 0 C65.46114685 -0.00404846 66.1957312 -0.00809692 66.95257568 -0.01226807 C72.00535437 0.03025671 72.00535437 0.03025671 74.23388672 2.25878906 C51.13388672 2.25878906 28.03388672 2.25878906 4.23388672 2.25878906 C5.88388672 3.90878906 7.53388672 5.55878906 9.23388672 7.25878906 C10.56201172 9.39160156 10.56201172 9.39160156 11.48388672 11.38378906 C11.79841797 12.04636719 12.11294922 12.70894531 12.43701172 13.39160156 C15.76765769 21.19576223 15.5303094 32.03753685 12.48388672 39.94628906 C10.53234144 44.05699082 8.43340163 48.15903161 4.23388672 50.25878906 C27.00388672 50.25878906 49.77388672 50.25878906 73.23388672 50.25878906 C72.24388672 51.24878906 72.24388672 51.24878906 71.23388672 52.25878906 C67.93388672 52.25878906 64.63388672 52.25878906 61.23388672 52.25878906 C61.23388672 69.41878906 61.23388672 86.57878906 61.23388672 104.25878906 C34.17388672 104.25878906 7.11388672 104.25878906 -20.76611328 104.25878906 C-21.17611444 83.44677355 -21.17611444 83.44677355 -21.31689453 74.53222656 C-21.41283783 68.46422547 -21.5131801 62.39653345 -21.640625 56.32910156 C-21.74316052 51.43393136 -21.82521001 46.53879634 -21.89344025 41.64303207 C-21.92291634 39.78113874 -21.95960471 37.91934429 -22.00383759 36.05774307 C-22.29737334 23.44702819 -22.08480996 13.53209835 -13.32861328 3.63378906 C-9.23366727 0.03023658 -5.26832116 -0.02919582 0 0 Z M-19.76611328 40.25878906 C-19.76611328 61.04878906 -19.76611328 81.83878906 -19.76611328 103.25878906 C6.63388672 103.25878906 33.03388672 103.25878906 60.23388672 103.25878906 C60.23388672 86.42878906 60.23388672 69.59878906 60.23388672 52.25878906 C55.38314453 52.22140625 50.53240234 52.18402344 45.53466797 52.14550781 C42.45846081 52.11522553 39.38231133 52.08407612 36.30615234 52.04980469 C31.42540411 51.9955109 26.54476998 51.94439986 21.66381836 51.91235352 C17.72788813 51.88631067 13.79234177 51.84590177 9.8566494 51.7956028 C8.35643482 51.77894063 6.85615385 51.76742228 5.35585976 51.76117516 C3.25139925 51.75152657 1.14791933 51.7234608 -0.95629883 51.69116211 C-2.15320847 51.68005905 -3.3501181 51.66895599 -4.58329773 51.65751648 C-8.04944158 51.22329509 -9.89725908 50.18012266 -12.76611328 48.25878906 C-13.42611328 48.25878906 -14.08611328 48.25878906 -14.76611328 48.25878906 C-15.03423828 47.49566406 -15.30236328 46.73253906 -15.57861328 45.94628906 C-16.70563423 42.95827401 -16.70563423 42.95827401 -19.76611328 40.25878906 Z " fill="#D0D0D0" transform="translate(30.76611328125,34.7412109375)"/>
<path d="M0 0 C3.3 0 6.6 0 10 0 C10.99 2.97 11.98 5.94 13 9 C18.61 9 24.22 9 30 9 C31.32 6.03 32.64 3.06 34 0 C36.97 0 39.94 0 43 0 C42.26266931 4.94316968 40.42785654 9.39124927 38.62109375 14.01953125 C38.12380516 15.30738777 38.12380516 15.30738777 37.61647034 16.6212616 C36.56059091 19.35315393 35.49912889 22.08283749 34.4375 24.8125 C33.7190313 26.6684767 33.00092815 28.52459496 32.28320312 30.38085938 C30.52636713 34.92222411 28.76452246 39.46161658 27 44 C23.7 44 20.4 44 17 44 C13.25165283 35.93305617 9.79797553 27.77440627 6.49584961 19.51757812 C5.67666507 17.47295684 4.84919457 15.43180747 4.02148438 13.390625 C3.4968919 12.08353547 2.97278477 10.77625102 2.44921875 9.46875 C1.97830811 8.29763672 1.50739746 7.12652344 1.0222168 5.91992188 C0 3 0 3 0 0 Z " fill="#070707" transform="translate(27,90)"/>
<path d="M0 0 C2.97 0 5.94 0 9 0 C9 4.62 9 9.24 9 14 C11.64 14 14.28 14 17 14 C9.18791946 23.31543624 9.18791946 23.31543624 6 26 C1.9839307 25.788182 -0.04897499 23.32089972 -2.75 20.5625 C-3.54921875 19.75941406 -4.3484375 18.95632812 -5.171875 18.12890625 C-7 16 -7 16 -7 14 C-4.69 14 -2.38 14 0 14 C0 9.38 0 4.76 0 0 Z " fill="#0B0B0B" transform="translate(104,113)"/>
<path d="M0 0 C3.16842693 0.25689948 4.60962957 0.58270747 6.8125 2.9375 C8.51442004 7.3266622 8.7041671 11.35249716 8 16 C6.3125 18.6875 6.3125 18.6875 4 20 C1.4375 20.1875 1.4375 20.1875 -1 19 C-4.27221561 13.65538117 -4.38915587 10.0527506 -3 4 C-1.4375 1.5 -1.4375 1.5 0 0 Z " fill="#070707" transform="translate(25,51)"/>
<path d="M0 0 C1.4540625 0.0309375 1.4540625 0.0309375 2.9375 0.0625 C3.2675 1.3825 3.5975 2.7025 3.9375 4.0625 C1.9575 3.4025 -0.0225 2.7425 -2.0625 2.0625 C-0.81703595 5.79889216 0.57154953 6.25006513 3.9375 8.0625 C4.9275 5.4225 5.9175 2.7825 6.9375 0.0625 C8.2575 0.0625 9.5775 0.0625 10.9375 0.0625 C11.44221197 1.83199612 11.94110685 3.60315223 12.4375 5.375 C12.7159375 6.36113281 12.994375 7.34726563 13.28125 8.36328125 C13.9375 11.0625 13.9375 11.0625 13.9375 14.0625 C12.9475 14.0625 11.9575 14.0625 10.9375 14.0625 C10.9375 13.0725 10.9375 12.0825 10.9375 11.0625 C9.6175 11.0625 8.2975 11.0625 6.9375 11.0625 C6.6075 12.0525 6.2775 13.0425 5.9375 14.0625 C4.47957116 14.11649736 3.02107288 14.15529177 1.5625 14.1875 C0.75039062 14.21070313 -0.06171875 14.23390625 -0.8984375 14.2578125 C-3.0625 14.0625 -3.0625 14.0625 -5.0625 12.0625 C-5.0625 11.0725 -5.0625 10.0825 -5.0625 9.0625 C-4.4025 9.0625 -3.7425 9.0625 -3.0625 9.0625 C-2.7325 9.7225 -2.4025 10.3825 -2.0625 11.0625 C-0.03786745 11.71463292 -0.03786745 11.71463292 1.9375 12.0625 C1.24864204 8.85188622 1.24864204 8.85188622 -1.625 7.6875 C-2.429375 7.15125 -3.23375 6.615 -4.0625 6.0625 C-4.4375 3.4375 -4.4375 3.4375 -4.0625 1.0625 C-3.0625 0.0625 -3.0625 0.0625 0 0 Z " fill="#C2C2C2" transform="translate(82.0625,4.9375)"/>
<path d="M0 0 C3.125 0.375 3.125 0.375 6 1 C6 2.32 6 3.64 6 5 C5.34 5 4.68 5 4 5 C4 4.01 4 3.02 4 2 C3.01 2.33 2.02 2.66 1 3 C1 5.64 1 8.28 1 11 C1.66 11 2.32 11 3 11 C3.33 10.34 3.66 9.68 4 9 C4.66 9 5.32 9 6 9 C6.99 6.03 7.98 3.06 9 0 C10.32 0 11.64 0 13 0 C13.50471197 1.76949612 14.00360685 3.54065223 14.5 5.3125 C14.7784375 6.29863281 15.056875 7.28476563 15.34375 8.30078125 C16 11 16 11 16 14 C15.01 14 14.02 14 13 14 C13 13.01 13 12.02 13 11 C11.68 11 10.36 11 9 11 C8.67 11.99 8.34 12.98 8 14 C4.70772079 14 2.14445451 13.84985257 -1 13 C-2.17673198 10.64653604 -2.16623866 9.1193967 -2.1875 6.5 C-2.20167969 5.7059375 -2.21585938 4.911875 -2.23046875 4.09375 C-2 2 -2 2 0 0 Z " fill="#C2C2C2" transform="translate(18,5)"/>
<path d="M0 0 C5.61 0 11.22 0 17 0 C17 0.66 17 1.32 17 2 C16.01 2 15.02 2 14 2 C14 5.96 14 9.92 14 14 C13.34 14 12.68 14 12 14 C12 10.04 12 6.08 12 2 C10.68 2 9.36 2 8 2 C8.33 5.96 8.66 9.92 9 14 C8.01 14 7.02 14 6 14 C5.67 12.35 5.34 10.7 5 9 C4.01 8.67 3.02 8.34 2 8 C2 9.98 2 11.96 2 14 C1.34 14 0.68 14 0 14 C0 9.38 0 4.76 0 0 Z " fill="#AEAEAE" transform="translate(35,5)"/>
<path d="M0 0 C3.3 0 6.6 0 10 0 C7.05357143 10.17857143 7.05357143 10.17857143 5 14 C2.96470413 11.96470413 2.3615728 10.76582618 1.375 8.125 C1.11460938 7.44695312 0.85421875 6.76890625 0.5859375 6.0703125 C0 4 0 4 0 0 Z " fill="#F5F5F5" transform="translate(44,108)"/>
<path d="M0 0 C0.99 0 1.98 0 3 0 C3.99 4.62 4.98 9.24 6 14 C5.34 14 4.68 14 4 14 C3.67 13.34 3.34 12.68 3 12 C0.97536745 11.34786708 0.97536745 11.34786708 -1 11 C-1 11.99 -1 12.98 -1 14 C-1.99 14 -2.98 14 -4 14 C-3.71572583 12.41532272 -3.42225182 10.8322943 -3.125 9.25 C-2.96257812 8.36828125 -2.80015625 7.4865625 -2.6328125 6.578125 C-2.03203736 4.13052256 -1.22002883 2.19400143 0 0 Z " fill="#E5E5E5" transform="translate(67,5)"/>
<path d="M0 0 C0.99 0 1.98 0 3 0 C3.99 4.62 4.98 9.24 6 14 C5.34 14 4.68 14 4 14 C3.67 13.34 3.34 12.68 3 12 C0.97536745 11.34786708 0.97536745 11.34786708 -1 11 C-1 11.99 -1 12.98 -1 14 C-1.99 14 -2.98 14 -4 14 C-3.71572583 12.41532272 -3.42225182 10.8322943 -3.125 9.25 C-2.96257813 8.36828125 -2.80015625 7.4865625 -2.6328125 6.578125 C-2.03203736 4.13052256 -1.22002883 2.19400143 0 0 Z " fill="#E5E5E5" transform="translate(54,5)"/>
<path d="M0 0 C1.4540625 0.0309375 1.4540625 0.0309375 2.9375 0.0625 C3.2675 1.3825 3.5975 2.7025 3.9375 4.0625 C1.9575 3.4025 -0.0225 2.7425 -2.0625 2.0625 C-0.80407232 5.83778304 0.56243429 6.16917045 3.9375 8.0625 C5.9375 10.0625 5.9375 10.0625 5.9375 14.0625 C4.47957116 14.11649736 3.02107288 14.15529177 1.5625 14.1875 C0.75039062 14.21070313 -0.06171875 14.23390625 -0.8984375 14.2578125 C-3.0625 14.0625 -3.0625 14.0625 -5.0625 12.0625 C-5.0625 11.0725 -5.0625 10.0825 -5.0625 9.0625 C-4.4025 9.0625 -3.7425 9.0625 -3.0625 9.0625 C-2.7325 9.7225 -2.4025 10.3825 -2.0625 11.0625 C-0.03786745 11.71463292 -0.03786745 11.71463292 1.9375 12.0625 C1.24864204 8.85188622 1.24864204 8.85188622 -1.625 7.6875 C-2.429375 7.15125 -3.23375 6.615 -4.0625 6.0625 C-4.4375 3.4375 -4.4375 3.4375 -4.0625 1.0625 C-3.0625 0.0625 -3.0625 0.0625 0 0 Z " fill="#DDDDDD" transform="translate(82.0625,4.9375)"/>
<path d="M0 0 C3.125 0.375 3.125 0.375 6 1 C6 2.32 6 3.64 6 5 C5.34 5 4.68 5 4 5 C4 4.01 4 3.02 4 2 C3.01 2.33 2.02 2.66 1 3 C1 5.64 1 8.28 1 11 C1.66 11 2.32 11 3 11 C3.33 10.34 3.66 9.68 4 9 C5.32 9.33 6.64 9.66 8 10 C8 11.32 8 12.64 8 14 C4.70772079 14 2.14445451 13.84985257 -1 13 C-2.17673198 10.64653604 -2.16623866 9.1193967 -2.1875 6.5 C-2.20167969 5.7059375 -2.21585938 4.911875 -2.23046875 4.09375 C-2 2 -2 2 0 0 Z " fill="#E2E2E2" transform="translate(18,5)"/>
<path d="M0 0 C1.134375 0.020625 2.26875 0.04125 3.4375 0.0625 C3.4375 0.7225 3.4375 1.3825 3.4375 2.0625 C1.7875 2.0625 0.1375 2.0625 -1.5625 2.0625 C-1.5625 2.7225 -1.5625 3.3825 -1.5625 4.0625 C-0.6034375 4.2790625 -0.6034375 4.2790625 0.375 4.5 C2.4375 5.0625 2.4375 5.0625 3.4375 6.0625 C3.625 8.5 3.625 8.5 3.4375 11.0625 C1.4375 13.0625 1.4375 13.0625 -1.1875 13.1875 C-1.97125 13.14625 -2.755 13.105 -3.5625 13.0625 C-3.8925 11.7425 -4.2225 10.4225 -4.5625 9.0625 C-3.9025 9.0625 -3.2425 9.0625 -2.5625 9.0625 C-2.5625 9.7225 -2.5625 10.3825 -2.5625 11.0625 C-1.5725 10.7325 -0.5825 10.4025 0.4375 10.0625 C1.17073796 8.04741642 1.17073796 8.04741642 1.4375 6.0625 C-0.5425 6.3925 -2.5225 6.7225 -4.5625 7.0625 C-4.60504356 5.06295254 -4.60330783 3.06208364 -4.5625 1.0625 C-3.5625 0.0625 -3.5625 0.0625 0 0 Z " fill="#C4C4C3" transform="translate(105.5625,5.9375)"/>
<path d="M0 0 C2.64 0 5.28 0 8 0 C8 0.66 8 1.32 8 2 C7.01 2 6.02 2 5 2 C5 5.96 5 9.92 5 14 C4.34 14 3.68 14 3 14 C3 9.71 3 5.42 3 1 C2.01 0.67 1.02 0.34 0 0 Z " fill="#F2F2F2" transform="translate(44,5)"/>
<path d="M0 0 C1.4540625 0.0309375 1.4540625 0.0309375 2.9375 0.0625 C3.2675 1.3825 3.5975 2.7025 3.9375 4.0625 C1.9575 3.4025 -0.0225 2.7425 -2.0625 2.0625 C-1.31099977 5.34023504 -1.31099977 5.34023504 1.9375 7.0625 C0.0625 7.6875 0.0625 7.6875 -2.0625 8.0625 C-4.0625 6.0625 -4.0625 6.0625 -4.25 3.5 C-3.97031732 -0.13587487 -3.72751987 0.07607183 0 0 Z " fill="#D0D0D0" transform="translate(82.0625,4.9375)"/>
<path d="M0 0 C0.99 0.33 1.98 0.66 3 1 C3.125 3.375 3.125 3.375 3 6 C1 8 1 8 -1.625 8.125 C-2.40875 8.08375 -3.1925 8.0425 -4 8 C-4.33 6.68 -4.66 5.36 -5 4 C-4.34 4 -3.68 4 -3 4 C-3 4.66 -3 5.32 -3 6 C-2.01 5.67 -1.02 5.34 0 5 C0 3.35 0 1.7 0 0 Z " fill="#DBDBDB" transform="translate(106,11)"/>
<path d="M0 0 C2.09749995 2.35968744 2.96905704 3.54616994 3.1875 6.75 C3.125625 7.4925 3.06375 8.235 3 9 C1.68 9 0.36 9 -1 9 C-0.67 6.03 -0.34 3.06 0 0 Z " fill="#939393" transform="translate(89,5)"/>
<path d="M0 0 C2.09749995 2.35968744 2.96905704 3.54616994 3.1875 6.75 C3.125625 7.4925 3.06375 8.235 3 9 C1.68 9 0.36 9 -1 9 C-0.67 6.03 -0.34 3.06 0 0 Z " fill="#939393" transform="translate(27,5)"/>
<path d="M0 0 C0.99 0 1.98 0 3 0 C3.33 2.97 3.66 5.94 4 9 C2.68 9.33 1.36 9.66 0 10 C0.66 9.67 1.32 9.34 2 9 C2 7.35 2 5.7 2 4 C1.34 3.67 0.68 3.34 0 3 C0 2.01 0 1.02 0 0 Z " fill="#E4E4E4" transform="translate(90,5)"/>
<path d="M0 0 C0.99 0 1.98 0 3 0 C3.33 2.97 3.66 5.94 4 9 C2.68 9.33 1.36 9.66 0 10 C0.66 9.67 1.32 9.34 2 9 C2 7.35 2 5.7 2 4 C1.34 3.67 0.68 3.34 0 3 C0 2.01 0 1.02 0 0 Z " fill="#E4E4E4" transform="translate(28,5)"/>
<path d="M0 0 C0.33 0 0.66 0 1 0 C1.12375 0.78375 1.2475 1.5675 1.375 2.375 C1.79117993 5.14057822 1.79117993 5.14057822 4 7 C3.34 7 2.68 7 2 7 C2 8.98 2 10.96 2 13 C1.34 13 0.68 13 0 13 C0 8.71 0 4.42 0 0 Z " fill="#F7F7F7" transform="translate(35,6)"/>
<path d="M0 0 C2 3 2 3 1.625 6.1875 C1.41875 7.115625 1.2125 8.04375 1 9 C0.01 9 -0.98 9 -2 9 C-1.41196203 5.97580475 -0.77321882 2.98241547 0 0 Z " fill="#848483" transform="translate(69,5)"/>
<path d="M0 0 C2 3 2 3 1.625 6.1875 C1.41875 7.115625 1.2125 8.04375 1 9 C0.01 9 -0.98 9 -2 9 C-1.41196203 5.97580475 -0.77321882 2.98241547 0 0 Z " fill="#848483" transform="translate(56,5)"/>
<path d="M0 0 C2.97 0.495 2.97 0.495 6 1 C6 2.32 6 3.64 6 5 C5.34 5 4.68 5 4 5 C4 4.01 4 3.02 4 2 C2.68 2.33 1.36 2.66 0 3 C0 2.01 0 1.02 0 0 Z " fill="#CFCFCF" transform="translate(18,5)"/>
<path d="M0 0 C0.33 0.66 0.66 1.32 1 2 C2.65 2 4.3 2 6 2 C4.68 2.33 3.36 2.66 2 3 C2 3.99 2 4.98 2 6 C1.01 6 0.02 6 -1 6 C-0.67 4.02 -0.34 2.04 0 0 Z " fill="#BCBCBB" transform="translate(64,13)"/>
<path d="M0 0 C0.33 0.66 0.66 1.32 1 2 C2.65 2 4.3 2 6 2 C4.68 2.33 3.36 2.66 2 3 C2 3.99 2 4.98 2 6 C1.01 6 0.02 6 -1 6 C-0.67 4.02 -0.34 2.04 0 0 Z " fill="#BCBCBB" transform="translate(51,13)"/>
</svg>
